<svg width="383" height="333" viewBox="0 0 383 333" fill="none" xmlns="http://www.w3.org/2000/svg">
<rect width="219.117" height="37.6674" rx="18.8337" transform="matrix(0.6861 -0.727507 0.738941 0.67377 31.4795 198.147)" fill="#5D4FB6"/>
<rect width="219.117" height="37.6674" rx="18.8337" transform="matrix(0.6861 -0.727507 0.738941 0.67377 75.1299 202.835)" fill="#5D4FB6"/>
<rect width="219.171" height="37.658" rx="18.829" transform="matrix(0.696634 -0.717426 0.728851 0.684672 87.4551 238.582)" fill="#5D4FB6"/>
<rect width="219.499" height="37.6005" rx="18.8002" transform="matrix(0.762459 -0.647037 0.657932 0.753077 149.57 214.59)" fill="#5D4FB6"/>
<rect width="219.499" height="37.6005" rx="18.8002" transform="matrix(0.762459 -0.647037 0.657932 0.753077 128.706 280.261)" fill="#5D4FB6"/>
<path d="M102.72 158.32V177.57H116.86V181H98.73V158.32H102.72ZM133.521 175.26H137.266C137.079 176.45 136.612 177.512 135.866 178.445C135.142 179.355 134.151 180.078 132.891 180.615C131.631 181.128 130.126 181.385 128.376 181.385C126.392 181.385 124.619 181.023 123.056 180.3C121.492 179.553 120.267 178.503 119.381 177.15C118.494 175.797 118.051 174.187 118.051 172.32C118.051 170.477 118.482 168.867 119.346 167.49C120.209 166.113 121.399 165.052 122.916 164.305C124.456 163.558 126.229 163.185 128.236 163.185C130.312 163.185 132.039 163.558 133.416 164.305C134.816 165.028 135.854 166.125 136.531 167.595C137.207 169.042 137.487 170.873 137.371 173.09H122.006C122.122 174.07 122.437 174.957 122.951 175.75C123.487 176.52 124.211 177.127 125.121 177.57C126.031 177.99 127.092 178.2 128.306 178.2C129.659 178.2 130.791 177.932 131.701 177.395C132.634 176.858 133.241 176.147 133.521 175.26ZM128.131 166.335C126.544 166.335 125.237 166.732 124.211 167.525C123.184 168.295 122.519 169.287 122.216 170.5H133.451C133.357 169.193 132.832 168.178 131.876 167.455C130.919 166.708 129.671 166.335 128.131 166.335ZM138.287 163.57H150.607V166.755H138.287V163.57ZM142.487 158.88H146.407V181H142.487V158.88ZM152.893 167.105L152.193 166.055C152.566 165.495 152.904 164.9 153.208 164.27C153.534 163.617 153.709 162.975 153.733 162.345L151.878 161.96V158.18H156.673V160.91C156.673 162.45 156.311 163.71 155.588 164.69C154.888 165.67 153.989 166.475 152.893 167.105ZM158.449 175.26H162.054C162.241 176.147 162.719 176.87 163.489 177.43C164.259 177.967 165.297 178.235 166.604 178.235C167.444 178.235 168.097 178.142 168.564 177.955C169.054 177.768 169.392 177.512 169.579 177.185C169.789 176.858 169.894 176.485 169.894 176.065C169.894 175.552 169.742 175.155 169.439 174.875C169.159 174.595 168.739 174.362 168.179 174.175C167.619 173.988 166.919 173.825 166.079 173.685C165.216 173.475 164.364 173.242 163.524 172.985C162.684 172.728 161.926 172.413 161.249 172.04C160.572 171.643 160.036 171.153 159.639 170.57C159.266 169.963 159.079 169.228 159.079 168.365C159.079 167.572 159.254 166.86 159.604 166.23C159.977 165.577 160.491 165.028 161.144 164.585C161.797 164.142 162.567 163.803 163.454 163.57C164.341 163.313 165.309 163.185 166.359 163.185C167.876 163.185 169.136 163.43 170.139 163.92C171.166 164.41 171.936 165.098 172.449 165.985C172.986 166.872 173.254 167.887 173.254 169.03H169.824C169.637 168.097 169.276 167.42 168.739 167C168.202 166.58 167.397 166.37 166.324 166.37C165.251 166.37 164.434 166.557 163.874 166.93C163.314 167.303 163.034 167.817 163.034 168.47C163.034 168.96 163.209 169.357 163.559 169.66C163.932 169.94 164.457 170.185 165.134 170.395C165.811 170.605 166.604 170.815 167.514 171.025C168.354 171.258 169.147 171.503 169.894 171.76C170.641 171.993 171.306 172.297 171.889 172.67C172.496 173.02 172.974 173.487 173.324 174.07C173.674 174.653 173.849 175.377 173.849 176.24C173.849 177.313 173.557 178.235 172.974 179.005C172.414 179.775 171.597 180.37 170.524 180.79C169.451 181.187 168.156 181.385 166.639 181.385C165.309 181.385 164.154 181.233 163.174 180.93C162.217 180.627 161.412 180.23 160.759 179.74C160.129 179.25 159.639 178.725 159.289 178.165C158.939 177.605 158.694 177.068 158.554 176.555C158.437 176.042 158.402 175.61 158.449 175.26ZM180.393 158.32H202.163V161.75H180.393V158.32ZM189.318 161.33H193.273V181H189.318V161.33ZM208.751 181.385C207.164 181.385 205.706 181 204.376 180.23C203.069 179.46 202.019 178.398 201.226 177.045C200.456 175.668 200.071 174.093 200.071 172.32C200.071 170.5 200.468 168.913 201.261 167.56C202.054 166.183 203.128 165.11 204.481 164.34C205.834 163.57 207.351 163.185 209.031 163.185C210.898 163.185 212.379 163.593 213.476 164.41C214.573 165.227 215.354 166.323 215.821 167.7C216.288 169.077 216.521 170.617 216.521 172.32C216.521 173.277 216.381 174.292 216.101 175.365C215.821 176.415 215.378 177.395 214.771 178.305C214.188 179.215 213.394 179.962 212.391 180.545C211.411 181.105 210.198 181.385 208.751 181.385ZM209.941 178.165C211.248 178.165 212.356 177.92 213.266 177.43C214.199 176.917 214.899 176.217 215.366 175.33C215.856 174.443 216.101 173.44 216.101 172.32C216.101 171.083 215.856 170.033 215.366 169.17C214.876 168.283 214.176 167.607 213.266 167.14C212.356 166.65 211.248 166.405 209.941 166.405C208.074 166.405 206.628 166.953 205.601 168.05C204.574 169.147 204.061 170.57 204.061 172.32C204.061 173.463 204.306 174.478 204.796 175.365C205.309 176.252 206.009 176.94 206.896 177.43C207.783 177.92 208.798 178.165 209.941 178.165ZM216.101 163.57H220.021V181H216.381C216.381 181 216.358 180.778 216.311 180.335C216.264 179.892 216.218 179.355 216.171 178.725C216.124 178.072 216.101 177.453 216.101 176.87V163.57ZM223.592 156.57H227.477V181H223.592V156.57ZM231.497 156.57H235.382V181H231.497V156.57ZM248.962 163.57L239.197 172.53L239.302 170.08L249.697 181H244.727L235.487 171.235L243.572 163.57H248.962ZM252.062 157.305H255.982V173.93H252.062V157.305ZM256.367 177.22V181H251.677V177.22H256.367Z" fill="white"/>
</svg>
