<svg width="526" height="345" viewBox="0 0 526 345" fill="none" xmlns="http://www.w3.org/2000/svg">
<rect width="345.215" height="55.2802" rx="27.6401" transform="matrix(0.893055 -0.449947 0.577698 0.816251 -4 155.329)" fill="#5D4FB6"/>
<rect width="345.215" height="55.2802" rx="27.6401" transform="matrix(0.893055 -0.449947 0.577698 0.816251 62.167 178.832)" fill="#5D4FB6"/>
<rect width="345.906" height="55.1501" rx="27.5751" transform="matrix(0.899008 -0.437931 0.564725 0.825279 65.0811 231.798)" fill="#5D4FB6"/>
<rect width="350.131" height="54.3419" rx="27.1709" transform="matrix(0.933857 -0.357647 0.473773 0.880647 173.282 223.977)" fill="#5D4FB6"/>
<rect width="350.131" height="54.3419" rx="27.1709" transform="matrix(0.933857 -0.357647 0.473773 0.880647 110.549 304.144)" fill="#5D4FB6"/>
<path d="M104.216 147.896V174.296H123.608V179H98.744V147.896H104.216ZM146.457 171.128H151.593C151.337 172.76 150.697 174.216 149.673 175.496C148.681 176.744 147.321 177.736 145.593 178.472C143.865 179.176 141.801 179.528 139.401 179.528C136.681 179.528 134.249 179.032 132.105 178.04C129.961 177.016 128.281 175.576 127.065 173.72C125.849 171.864 125.241 169.656 125.241 167.096C125.241 164.568 125.833 162.36 127.017 160.472C128.201 158.584 129.833 157.128 131.913 156.104C134.025 155.08 136.457 154.568 139.209 154.568C142.057 154.568 144.425 155.08 146.313 156.104C148.233 157.096 149.657 158.6 150.585 160.616C151.513 162.6 151.897 165.112 151.737 168.152H130.665C130.825 169.496 131.257 170.712 131.961 171.8C132.697 172.856 133.689 173.688 134.937 174.296C136.185 174.872 137.641 175.16 139.305 175.16C141.161 175.16 142.713 174.792 143.961 174.056C145.241 173.32 146.073 172.344 146.457 171.128ZM139.065 158.888C136.889 158.888 135.097 159.432 133.689 160.52C132.281 161.576 131.369 162.936 130.953 164.6H146.361C146.233 162.808 145.513 161.416 144.201 160.424C142.889 159.4 141.177 158.888 139.065 158.888ZM152.994 155.096H169.89V159.464H152.994V155.096ZM158.754 148.664H164.13V179H158.754V148.664ZM173.024 159.944L172.064 158.504C172.576 157.736 173.04 156.92 173.456 156.056C173.904 155.16 174.144 154.28 174.176 153.416L171.632 152.888V147.704H178.208V151.448C178.208 153.56 177.712 155.288 176.72 156.632C175.76 157.976 174.528 159.08 173.024 159.944ZM180.644 171.128H185.588C185.844 172.344 186.5 173.336 187.556 174.104C188.612 174.84 190.036 175.208 191.828 175.208C192.98 175.208 193.876 175.08 194.516 174.824C195.188 174.568 195.652 174.216 195.908 173.768C196.196 173.32 196.34 172.808 196.34 172.232C196.34 171.528 196.132 170.984 195.716 170.6C195.332 170.216 194.756 169.896 193.988 169.64C193.22 169.384 192.26 169.16 191.108 168.968C189.924 168.68 188.756 168.36 187.604 168.008C186.452 167.656 185.412 167.224 184.484 166.712C183.556 166.168 182.82 165.496 182.276 164.696C181.764 163.864 181.508 162.856 181.508 161.672C181.508 160.584 181.748 159.608 182.228 158.744C182.74 157.848 183.444 157.096 184.34 156.488C185.236 155.88 186.292 155.416 187.508 155.096C188.724 154.744 190.052 154.568 191.492 154.568C193.572 154.568 195.3 154.904 196.676 155.576C198.084 156.248 199.14 157.192 199.844 158.408C200.58 159.624 200.948 161.016 200.948 162.584H196.244C195.988 161.304 195.492 160.376 194.756 159.8C194.02 159.224 192.916 158.936 191.444 158.936C189.972 158.936 188.852 159.192 188.084 159.704C187.316 160.216 186.932 160.92 186.932 161.816C186.932 162.488 187.172 163.032 187.652 163.448C188.164 163.832 188.884 164.168 189.812 164.456C190.74 164.744 191.828 165.032 193.076 165.32C194.228 165.64 195.316 165.976 196.34 166.328C197.364 166.648 198.276 167.064 199.076 167.576C199.908 168.056 200.564 168.696 201.044 169.496C201.524 170.296 201.764 171.288 201.764 172.472C201.764 173.944 201.364 175.208 200.564 176.264C199.796 177.32 198.676 178.136 197.204 178.712C195.732 179.256 193.956 179.528 191.876 179.528C190.052 179.528 188.468 179.32 187.124 178.904C185.812 178.488 184.708 177.944 183.812 177.272C182.948 176.6 182.276 175.88 181.796 175.112C181.316 174.344 180.98 173.608 180.788 172.904C180.628 172.2 180.58 171.608 180.644 171.128ZM210.74 147.896H240.596V152.6H210.74V147.896ZM222.98 152.024H228.404V179H222.98V152.024ZM249.63 179.528C247.454 179.528 245.454 179 243.63 177.944C241.838 176.888 240.398 175.432 239.31 173.576C238.254 171.688 237.726 169.528 237.726 167.096C237.726 164.6 238.27 162.424 239.358 160.568C240.446 158.68 241.918 157.208 243.774 156.152C245.63 155.096 247.71 154.568 250.014 154.568C252.574 154.568 254.606 155.128 256.11 156.248C257.614 157.368 258.686 158.872 259.326 160.76C259.966 162.648 260.286 164.76 260.286 167.096C260.286 168.408 260.094 169.8 259.71 171.272C259.326 172.712 258.718 174.056 257.886 175.304C257.086 176.552 255.998 177.576 254.622 178.376C253.278 179.144 251.614 179.528 249.63 179.528ZM251.262 175.112C253.054 175.112 254.574 174.776 255.822 174.104C257.102 173.4 258.062 172.44 258.702 171.224C259.374 170.008 259.71 168.632 259.71 167.096C259.71 165.4 259.374 163.96 258.702 162.776C258.03 161.56 257.07 160.632 255.822 159.992C254.574 159.32 253.054 158.984 251.262 158.984C248.702 158.984 246.718 159.736 245.31 161.24C243.902 162.744 243.198 164.696 243.198 167.096C243.198 168.664 243.534 170.056 244.206 171.272C244.91 172.488 245.87 173.432 247.086 174.104C248.302 174.776 249.694 175.112 251.262 175.112ZM259.71 155.096H265.086V179H260.094C260.094 179 260.062 178.696 259.998 178.088C259.934 177.48 259.87 176.744 259.806 175.88C259.742 174.984 259.71 174.136 259.71 173.336V155.096ZM269.983 145.496H275.311V179H269.983V145.496ZM280.824 145.496H286.152V179H280.824V145.496ZM304.776 155.096L291.384 167.384L291.528 164.024L305.784 179H298.968L286.296 165.608L297.384 155.096H304.776ZM309.028 146.504H314.404V169.304H309.028V146.504ZM314.932 173.816V179H308.5V173.816H314.932Z" fill="white"/>
</svg>
